<svg width="20" height="20" viewBox="0 0 20 20" fill="none" xmlns="http://www.w3.org/2000/svg">
<path fill-rule="evenodd" clip-rule="evenodd" d="M10 20C15.5228 20 20 15.5229 20 10C20 4.47714 15.5228 0 10 0C4.47717 0 0 4.47714 0 10C0 15.5229 4.47717 20 10 20ZM10 4.5C10.8284 4.5 11.5 5.17157 11.5 6V8.5H14C14.8284 8.5 15.5 9.17157 15.5 10C15.5 10.8284 14.8284 11.5 14 11.5H11.5V14C11.5 14.8284 10.8284 15.5 10 15.5C9.17163 15.5 8.5 14.8284 8.5 14V11.5H6C5.17163 11.5 4.5 10.8284 4.5 10C4.5 9.17157 5.17163 8.5 6 8.5H8.5V6C8.5 5.17157 9.17163 4.5 10 4.5Z" fill="white"/>
</svg>
