<svg width="20" height="20" viewBox="0 0 20 20" fill="none" xmlns="http://www.w3.org/2000/svg">
<path fill-rule="evenodd" clip-rule="evenodd" d="M10 20C15.5228 20 20 15.5229 20 10C20 4.47714 15.5228 0 10 0C4.47717 0 0 4.47714 0 10C0 15.5229 4.47717 20 10 20ZM4.93933 4.93936C5.52515 4.35355 6.47485 4.35355 7.06067 4.93936L10 7.87869L12.9393 4.93936C13.5251 4.35355 14.4749 4.35355 15.0607 4.93936C15.6465 5.52515 15.6465 6.47488 15.0607 7.06067L12.1213 10L15.0607 12.9394C15.6465 13.5251 15.6465 14.4749 15.0607 15.0607C14.4749 15.6465 13.5251 15.6465 12.9393 15.0607L10 12.1213L7.06067 15.0607C6.47485 15.6465 5.52515 15.6465 4.93933 15.0607C4.35364 14.4749 4.35364 13.5251 4.93933 12.9394L7.87866 10L4.93933 7.06067C4.35364 6.47488 4.35364 5.52515 4.93933 4.93936Z" fill="white"/>
</svg>
