<svg width="64" height="64" viewBox="0 0 64 64" fill="none" xmlns="http://www.w3.org/2000/svg">
<rect x="4" y="4" width="56" height="56" rx="17" fill="#8000FF"/>
<path d="M47.6314 37.7267C47.895 37.5228 48.031 37.2084 47.994 36.8907C47.0706 28.9685 44.354 23.3013 43.2239 21.2263C42.7689 20.4061 41.9999 19.8056 41.0446 19.529L37.0519 18.4165C35.7944 17.925 34.5318 17.6152 33.2675 17.4919C33.3733 17.3718 33.4925 17.2581 33.6402 17.1601C34.6107 16.5153 35.0858 15.4264 34.8793 14.3171C34.1657 10.9431 28.9207 11.3745 28.8636 14.8275C28.8887 16.0807 30.8565 16.0681 30.8783 14.8275C30.8783 14.5446 31.011 14.2775 31.241 14.0942C32.3777 13.2709 33.5765 14.8607 32.4784 15.6113C31.7531 16.0918 31.2561 16.746 31.0278 17.4777C29.6627 17.5789 28.2977 17.887 26.9411 18.418L22.9468 19.5337C21.9965 19.8087 21.2275 20.4124 20.7826 21.2326C20.1563 22.3752 18.9441 24.8041 17.8578 28.2364C17.6983 28.739 18.0022 29.2668 18.5361 29.4154C19.0683 29.5639 19.6308 29.2795 19.7886 28.7769C20.8279 25.4914 21.9797 23.1842 22.5741 22.0984C22.7705 21.7365 23.113 21.4694 23.5278 21.3493L24.154 21.1739C23.6772 23.5633 22.6312 29.3946 21.9596 37.4212C19.9616 37.5303 18.6637 36.9345 18.0744 36.571C18.2507 35.1914 18.4924 33.8228 18.793 32.4954C18.9088 31.9834 18.5613 31.4793 18.0173 31.3702C17.4783 31.2612 16.9377 31.5883 16.8219 32.1003C16.4693 33.657 16.1956 35.2689 16.0059 36.892C15.9723 37.1828 16.0831 37.4736 16.3064 37.6775C16.3904 37.7549 18.1718 39.3337 21.4909 39.3337C21.5967 39.3337 21.7092 39.3258 21.8183 39.3226C21.6706 41.4071 21.548 43.4977 21.4674 45.5586C21.4506 45.9806 21.7344 46.363 22.1609 46.4941C28.6855 48.5027 35.3022 48.5012 41.8251 46.4941C42.2516 46.363 42.5353 45.9821 42.5185 45.5602C42.4447 43.5753 42.3355 41.5856 42.1878 39.5216C44.7298 39.7444 47.6194 37.8101 47.6241 37.7279L47.6314 37.7267ZM34.8812 19.7154C34.1861 22.5758 29.8209 22.5695 29.1173 19.7154C31.0465 19.2018 32.9521 19.2018 34.8812 19.7154ZM23.5163 44.9029C23.5163 38.003 25.9744 20.9323 26.337 20.5642L27.195 20.324C27.7793 22.3436 29.747 23.7754 32.0021 23.7754C34.262 23.7754 36.2264 22.342 36.804 20.324L37.662 20.5626C37.8433 21.3923 38.5854 24.9323 39.2688 30.3717C39.4468 31.6091 41.4045 31.3863 41.2684 30.1489C40.7261 25.8394 40.1603 22.7514 39.8413 21.1712C40.4407 21.3197 41.1627 21.5204 41.433 22.0957C42.4823 24.0221 44.9773 29.2261 45.9207 36.5464C45.1921 36.9936 43.639 37.7854 42.0389 37.6036C41.9382 36.3899 41.8307 35.1699 41.7065 33.9625C41.6528 33.441 41.1507 33.0586 40.6068 33.1107C40.0527 33.1613 39.648 33.6259 39.7018 34.1458C39.8495 35.5744 39.9838 37.0236 40.0963 38.4524C40.2693 40.6776 40.3969 42.7951 40.4825 44.9016C34.848 46.4978 29.1477 46.4978 23.5145 44.9016L23.5163 44.9029Z" fill="white"/>
<path d="M22 8C14 8 8 14 8 22" stroke="white" stroke-width="2" stroke-linecap="round"/>
<path d="M42 56C50 56 56 50 56 42" stroke="white" stroke-width="2" stroke-linecap="round"/>
</svg>
