<svg width="64" height="64" viewBox="0 0 64 64" fill="none" xmlns="http://www.w3.org/2000/svg">
<rect width="64" height="64" rx="20" fill="#8000FF"/>
<path d="M28.3722 18C28.4276 17.3906 28.2798 16.9136 27.929 16.5689C27.5781 16.218 26.9872 16.0426 26.1562 16.0426C25.6269 16.0426 25.1837 16.1042 24.8267 16.2273C24.4759 16.3504 24.2019 16.5196 24.005 16.7351C23.8142 16.9505 23.6941 17.1998 23.6449 17.483C23.5895 17.7045 23.5926 17.9077 23.6541 18.0923C23.7218 18.2708 23.848 18.4339 24.0327 18.5817C24.2235 18.7294 24.4728 18.8617 24.7805 18.9787C25.0945 19.0956 25.4669 19.2003 25.8977 19.2926L27.375 19.625C28.3845 19.8466 29.2308 20.139 29.9141 20.5021C30.6035 20.8591 31.1451 21.2839 31.5391 21.7763C31.933 22.2687 32.1915 22.8196 32.3146 23.429C32.4439 24.0384 32.447 24.7031 32.3239 25.4233C32.1146 26.6667 31.6314 27.7192 30.8743 28.581C30.1172 29.4427 29.1293 30.0982 27.9105 30.5476C26.6918 30.9969 25.2822 31.2216 23.6818 31.2216C22.0445 31.2216 20.6534 30.9785 19.5085 30.4922C18.3698 29.9998 17.545 29.2488 17.0341 28.2393C16.5294 27.2237 16.4063 25.928 16.6648 24.3523H21.5398C21.4659 24.9309 21.5275 25.4171 21.7244 25.8111C21.9214 26.205 22.2384 26.5036 22.6754 26.7067C23.1125 26.9098 23.6572 27.0114 24.3097 27.0114C24.8636 27.0114 25.3376 26.9437 25.7315 26.8082C26.1255 26.6728 26.4363 26.4851 26.6641 26.245C26.8918 26.005 27.0303 25.7311 27.0795 25.4233C27.1288 25.1402 27.0795 24.8878 26.9318 24.6662C26.7841 24.4446 26.5163 24.2446 26.1286 24.0661C25.7408 23.8875 25.2083 23.7244 24.5312 23.5767L22.7216 23.1705C21.1151 22.8011 19.9025 22.1918 19.0838 21.3423C18.2652 20.4929 17.9759 19.3295 18.2159 17.8523C18.4129 16.6458 18.9084 15.5933 19.7024 14.6946C20.5026 13.7898 21.5182 13.0881 22.7493 12.5895C23.9865 12.0848 25.3561 11.8324 26.858 11.8324C28.3845 11.8324 29.6617 12.0878 30.6896 12.5987C31.7237 13.1096 32.4654 13.8267 32.9148 14.75C33.3703 15.6733 33.4934 16.7566 33.2841 18H28.3722ZM16.0369 52L19.1761 33.0909H27.3381C28.7415 33.0909 29.9233 33.3679 30.8835 33.9219C31.8438 34.4759 32.5331 35.2545 32.9517 36.2578C33.3703 37.2611 33.4688 38.4337 33.2472 39.7756C33.0256 41.142 32.5331 42.3208 31.7699 43.3118C31.0128 44.2966 30.0464 45.0568 28.8707 45.5923C27.7012 46.1217 26.3902 46.3864 24.9375 46.3864H20.0625L20.7273 42.3977H24.5682C25.1837 42.3977 25.7254 42.2931 26.1932 42.0838C26.661 41.8684 27.0395 41.5668 27.3288 41.179C27.6181 40.785 27.8059 40.3172 27.892 39.7756C27.9782 39.2339 27.9382 38.7723 27.772 38.3906C27.612 38.0028 27.335 37.7074 26.9411 37.5043C26.5533 37.295 26.0578 37.1903 25.4545 37.1903H23.6449L21.1705 52H16.0369ZM33.0994 52L36.2386 33.0909H41.3722L38.9347 47.8636H46.5795L45.8778 52H33.0994Z" fill="white"/>
</svg>
